<svg width="114" height="113" viewBox="0 0 114 113" fill="none" xmlns="http://www.w3.org/2000/svg">
<path d="M10.8745 99.3025C9.57453 100.102 4.97453 102.302 4.97453 102.302C9.27454 98.8025 11.8745 96.8025 12.3745 97.3025C12.7745 97.9025 12.2745 98.5025 10.8745 99.3025ZM31.8745 88.6025C31.2745 88.5025 30.1745 90.0025 30.1745 90.0025L26.6745 91.7025C26.6745 91.7025 28.2745 88.2025 28.3745 87.4025C28.4745 86.6025 25.8745 85.7025 25.8745 85.7025L13.1745 94.1025L10.9745 89.5025L14.1745 85.2025C7.77453 81.9025 8.87453 89.8025 8.87453 89.8025L1.37453 95.1025L1.87453 96.1025L8.77453 90.7025C9.57453 92.1025 10.1745 93.2025 10.7745 94.1025C11.4745 95.4025 12.0745 96.0025 11.1745 96.5025C10.2745 97.0025 4.87454 100.502 2.07454 102.702C-0.725465 104.902 -0.225465 106.902 0.874535 106.702C2.07453 106.502 4.77454 105.002 10.5745 102.902C16.3745 100.802 15.6745 98.9025 15.0745 97.7025C14.4745 96.5025 13.6745 95.1025 13.6745 95.1025L24.8745 87.6025C24.2745 89.4025 23.2745 92.9025 21.3745 97.3025C19.3745 101.602 22.4745 106.402 23.8745 106.702C25.2745 107.002 25.0745 105.902 24.6745 103.902C24.2745 101.902 25.3745 96.5025 26.3745 93.9025C27.3745 91.4025 28.7745 92.2025 28.7745 92.2025C27.3745 94.5025 28.7745 95.8025 30.4745 96.1025C32.1745 96.4025 32.1745 94.4025 32.1745 93.4025C32.1745 92.4025 33.7745 89.8025 33.7745 89.4025C33.7745 89.0025 32.3745 88.7025 31.8745 88.6025Z" fill="#5C5656"/>
<path d="M32.0745 102.802C32.6745 103.502 32.5745 104.602 31.7745 105.202C31.0745 105.802 29.9745 105.702 29.3745 104.902C28.7745 104.202 29.0745 103.302 29.7745 102.702C30.5745 102.102 31.4745 102.002 32.0745 102.802Z" fill="#5C5656"/>
<path d="M21.2745 70.3024C21.2745 70.3024 24.2745 72.3024 19.9745 71.9024C15.6745 71.5024 -2.72547 65.5024 10.2745 38.8024C23.2745 12.1024 57.5745 -0.197601 85.7745 0.00239903C113.975 0.302399 115.575 17.4024 111.675 30.4024C107.775 43.4024 94.5745 54.7024 88.5745 58.3024C88.5745 58.3024 101.175 55.4024 104.875 62.3024C108.675 69.2024 106.975 89.4024 78.2745 108.702C66.9745 116.302 48.4745 113.302 52.2745 102.202C53.7745 97.6024 60.6745 88.3024 77.1745 79.1024L79.0745 81.1024C79.0745 81.1024 61.8745 91.5024 57.7745 99.0024C53.7745 106.502 61.7745 117.902 92.5745 85.4024C103.375 74.0024 107.275 56.2024 79.9745 62.1024L81.2745 55.0024C81.2745 55.0024 134.575 11.2024 90.6745 8.7024C57.2745 6.9024 -7.82547 41.1024 21.2745 70.3024Z" fill="#5C5656"/>
<path d="M82.5745 40.3023L81.1745 38.4023C81.1745 38.4023 24.7745 62.6023 53.0745 92.1023C53.0745 92.2023 47.5745 69.1023 82.5745 40.3023Z" fill="#5C5656"/>
</svg>
