<svg width="600" height="113" viewBox="0 0 600 113" fill="none" xmlns="http://www.w3.org/2000/svg">
<path d="M10.8745 99.3025C9.57453 100.102 4.97453 102.302 4.97453 102.302C9.27454 98.8025 11.8745 96.8025 12.3745 97.3025C12.7745 97.9025 12.2745 98.5025 10.8745 99.3025ZM31.8745 88.6025C31.2745 88.5025 30.1745 90.0025 30.1745 90.0025L26.6745 91.7025C26.6745 91.7025 28.2745 88.2025 28.3745 87.4025C28.4745 86.6025 25.8745 85.7025 25.8745 85.7025L13.1745 94.1025L10.9745 89.5025L14.1745 85.2025C7.77453 81.9025 8.87453 89.8025 8.87453 89.8025L1.37453 95.1025L1.87453 96.1025L8.77453 90.7025C9.57453 92.1025 10.1745 93.2025 10.7745 94.1025C11.4745 95.4025 12.0745 96.0025 11.1745 96.5025C10.2745 97.0025 4.87454 100.502 2.07454 102.702C-0.725465 104.902 -0.225465 106.902 0.874535 106.702C2.07453 106.502 4.77454 105.002 10.5745 102.902C16.3745 100.802 15.6745 98.9025 15.0745 97.7025C14.4745 96.5025 13.6745 95.1025 13.6745 95.1025L24.8745 87.6025C24.2745 89.4025 23.2745 92.9025 21.3745 97.3025C19.3745 101.602 22.4745 106.402 23.8745 106.702C25.2745 107.002 25.0745 105.902 24.6745 103.902C24.2745 101.902 25.3745 96.5025 26.3745 93.9025C27.3745 91.4025 28.7745 92.2025 28.7745 92.2025C27.3745 94.5025 28.7745 95.8025 30.4745 96.1025C32.1745 96.4025 32.1745 94.4025 32.1745 93.4025C32.1745 92.4025 33.7745 89.8025 33.7745 89.4025C33.7745 89.0025 32.3745 88.7025 31.8745 88.6025Z" fill="#31343B"/>
<path d="M32.0746 102.802C32.6746 103.502 32.5746 104.602 31.7746 105.202C31.0746 105.802 29.9746 105.702 29.3746 104.902C28.7746 104.202 29.0746 103.302 29.7746 102.702C30.5746 102.102 31.4746 102.002 32.0746 102.802Z" fill="#31343B"/>
<path d="M21.2745 70.3024C21.2745 70.3024 24.2745 72.3024 19.9745 71.9024C15.6745 71.5024 -2.72547 65.5024 10.2745 38.8024C23.2745 12.1024 57.5745 -0.197601 85.7745 0.00239903C113.975 0.302399 115.575 17.4024 111.675 30.4024C107.775 43.4024 94.5745 54.7024 88.5745 58.3024C88.5745 58.3024 101.175 55.4024 104.875 62.3024C108.675 69.2024 106.975 89.4024 78.2745 108.702C66.9745 116.302 48.4745 113.302 52.2745 102.202C53.7745 97.6024 60.6745 88.3024 77.1745 79.1024L79.0745 81.1024C79.0745 81.1024 61.8745 91.5024 57.7745 99.0024C53.7745 106.502 61.7745 117.902 92.5745 85.4024C103.375 74.0024 107.275 56.2024 79.9745 62.1024L81.2745 55.0024C81.2745 55.0024 134.575 11.2024 90.6745 8.7024C57.2745 6.9024 -7.82547 41.1024 21.2745 70.3024Z" fill="#31343B"/>
<path d="M82.5746 40.3023L81.1746 38.4023C81.1746 38.4023 24.7746 62.6023 53.0746 92.1023C53.0746 92.2023 47.5746 69.1023 82.5746 40.3023Z" fill="#31343B"/>
<path d="M385.794 95.1081V47.1802H399.063V95.1081H385.794ZM392.745 40.8739C390.849 40.8739 388.953 40.2432 387.69 38.982C386.426 37.7207 385.794 35.8288 385.794 33.9369C385.794 32.045 386.426 30.7838 387.69 28.8919C388.953 27.6306 390.849 27 392.745 27C394.64 27 396.536 27.6306 397.8 28.8919C399.063 30.1532 399.695 32.045 399.695 33.9369C399.695 35.8288 399.063 37.0901 397.8 38.982C396.536 40.2432 394.64 40.8739 392.745 40.8739ZM549.45 95.1081V47.1802H562.719V95.1081H549.45ZM556.401 40.8739C554.505 40.8739 552.609 40.2432 551.346 38.982C550.082 37.7207 549.45 35.8288 549.45 33.9369C549.45 32.045 550.082 30.7838 551.346 28.8919C552.609 27.6306 554.505 27 556.401 27C558.296 27 560.192 27.6306 561.456 28.8919C562.719 30.1532 563.351 32.045 563.351 33.9369C563.351 35.8288 562.719 37.0901 561.456 38.982C560.192 40.2432 558.296 40.8739 556.401 40.8739ZM599.368 47.1802V57.2703H590.522V80.6036C590.522 81.8649 590.522 82.4955 591.154 83.7568C591.786 84.3874 591.786 85.018 592.417 85.018C593.049 85.018 593.681 85.6486 594.945 85.6486C595.577 85.6486 596.209 85.6486 596.841 85.6486C597.472 85.6486 598.104 85.6486 598.104 85.6486L600 95.7387C599.368 95.7387 598.104 96.3694 597.472 96.3694C596.209 96.3694 594.945 97 593.049 97C589.89 97 586.731 97 584.835 95.7387C582.307 94.4775 580.412 93.2162 579.148 91.3243C577.884 89.4324 577.252 86.9099 577.252 83.7568V57.2703H570.934V47.1802H577.252V35.1982H590.522V46.5495H599.368V47.1802ZM485.63 30.7838V95.1081H499.532V76.8198L506.482 68.6216L524.175 95.1081H540.604L516.592 59.7928L540.604 30.7838H524.175L500.795 59.1622H500.164V30.7838H485.63ZM474.889 30.7838V95.1081H461.619V30.7838H474.889ZM415.492 94.4775C418.02 95.7387 420.547 96.3694 423.707 96.3694C426.234 96.3694 428.13 96.3694 430.025 95.7387C431.921 95.1081 433.185 94.4775 434.448 93.2162C435.712 91.955 436.976 90.6937 437.608 89.4324H438.24V95.1081H450.877V62.3153C450.877 59.1622 450.245 57.2702 448.982 54.7477C447.718 52.8558 446.454 50.964 444.559 49.7027C442.663 48.4414 440.767 47.1802 438.24 46.5495C435.712 45.9189 433.185 45.9189 430.657 45.9189C426.866 45.9189 423.707 46.5495 420.547 47.8108C417.388 49.0721 415.492 50.3333 413.597 52.8559C411.701 54.7477 410.437 57.2703 409.805 60.4234L422.443 61.6847C423.075 59.7928 423.707 58.5315 424.97 57.9009C426.234 56.6396 428.13 56.009 430.657 56.009C433.185 56.009 434.449 56.6396 435.712 57.9009C436.976 59.1622 437.608 60.4234 437.608 62.3153C437.608 63.5766 436.976 64.2072 436.344 64.8378C435.712 65.4685 434.449 65.4685 432.553 66.0991C430.657 66.0991 428.762 66.7297 425.602 66.7297C423.075 66.7297 421.179 67.3604 418.652 67.991C416.756 68.6216 414.86 69.2522 412.965 70.5135C411.069 71.7748 409.805 73.036 409.173 74.9279C407.91 76.8198 407.91 78.7117 407.91 81.8649C407.91 85.018 408.542 87.5405 409.805 90.0631C411.069 91.955 412.965 93.2162 415.492 94.4775ZM433.185 85.6486C431.921 86.2793 430.025 86.9099 428.13 86.9099C426.234 86.9099 424.339 86.2793 423.075 85.6486C421.811 84.3874 421.179 83.1261 421.179 81.2342C421.179 79.973 421.811 78.7117 422.443 78.0811C423.075 77.4504 423.707 76.8198 424.97 76.1892C426.234 75.5586 427.498 75.5586 429.394 74.9279C430.025 74.9279 430.657 74.9279 431.921 74.2973C432.553 74.2973 433.817 74.2973 434.448 73.6667C435.08 73.6667 436.344 73.036 436.976 73.036C437.608 73.036 438.24 72.4054 438.872 72.4054V77.4504C438.872 79.3423 438.24 80.6036 437.608 81.8649C436.976 83.1261 434.449 85.018 433.185 85.6486ZM349.777 47.1802V95.1081H363.047V67.991C363.047 66.0991 363.678 64.2072 364.31 62.9459C364.942 61.6847 366.206 60.4234 368.102 59.1622C369.365 58.5315 371.261 57.9009 373.157 57.9009C373.788 57.9009 375.052 57.9009 376.316 57.9009C377.58 57.9009 378.212 57.9009 378.843 58.5315V46.5495C378.212 46.5495 377.58 46.5495 376.948 45.9189C376.316 45.9189 375.684 45.9189 375.052 45.9189C372.525 45.9189 369.997 46.5495 368.102 48.4414C366.206 49.7027 364.31 52.2252 363.678 55.3784H363.047V47.1802H349.777ZM317.551 95.7387C312.496 95.7387 308.705 94.4775 304.914 92.5856C301.123 90.6937 298.595 87.5405 296.7 83.7568C294.804 79.973 293.54 75.5586 293.54 70.5135C293.54 65.4685 294.804 61.0541 296.7 57.2703C298.595 53.4865 301.123 50.3333 304.914 48.4414C308.705 46.5495 312.496 45.2883 317.551 45.2883C322.606 45.2883 326.398 46.5495 330.189 48.4414C333.98 50.3333 336.508 53.4865 338.403 57.2703C340.299 61.0541 341.563 65.4685 341.563 70.5135C341.563 75.5586 340.299 79.973 338.403 83.7568C336.508 87.5405 333.98 90.6937 330.189 92.5856C326.398 95.1081 321.975 95.7387 317.551 95.7387ZM317.551 85.6486C320.079 85.6486 321.343 85.018 323.238 83.7568C324.502 82.4955 325.766 80.6036 326.398 78.7117C327.03 76.8198 327.661 74.2973 327.661 71.1441C327.661 68.6216 327.03 66.0991 326.398 63.5766C325.766 61.6847 324.502 59.7928 323.238 58.5315C321.343 57.2703 319.447 56.6396 317.551 56.6396C315.024 56.6396 313.128 57.2703 311.865 58.5315C310.601 59.7928 309.337 61.6847 308.705 63.5766C308.073 65.4685 307.441 67.991 307.441 71.1441C307.441 73.6667 308.073 76.1892 308.705 78.7117C309.337 80.6036 310.601 82.4955 311.865 83.7568C313.128 85.018 315.024 85.6486 317.551 85.6486ZM287.221 57.2703V47.1802H278.375V35.1982H265.106V46.5495H258.787V57.2703H265.106V82.4955C265.106 85.6486 265.738 88.1712 267.001 90.0631C268.265 91.955 270.161 93.8468 272.688 94.4775C275.216 95.7387 277.743 95.7387 280.903 95.7387C282.798 95.7387 284.062 95.7387 285.326 95.1081C286.59 95.1081 287.221 94.4775 287.853 94.4775L285.958 84.3874C285.326 84.3874 285.326 84.3874 284.694 84.3874C284.062 84.3874 283.43 84.3874 282.798 84.3874C282.166 84.3874 280.903 84.3874 280.271 83.7568C279.639 83.7568 279.007 83.1261 279.007 82.4955C278.375 81.8649 278.375 80.6036 278.375 79.3423V57.2703H287.221ZM237.935 74.2973V47.1802H251.205V95.1081H238.567V86.2793H237.935C236.671 88.8018 234.776 91.3243 232.248 93.2162C229.721 95.1081 226.561 95.7387 222.77 95.7387C219.611 95.7387 216.451 95.1081 214.556 93.8468C212.028 92.5856 210.133 90.0631 208.869 87.5405C207.605 85.018 206.973 81.8649 206.973 78.0811V47.1802H220.243V75.5586C220.243 78.7117 220.874 80.6036 222.77 82.4955C224.034 84.3874 226.561 85.018 229.089 85.018C230.984 85.018 232.248 84.3874 233.512 83.7568C234.776 83.1261 236.039 81.8649 236.671 80.6036C237.303 78.7117 237.935 76.8198 237.935 74.2973ZM152 30.7838V42.1351H171.588V95.1081H184.858V42.1351H204.446V30.7838H152Z" fill="#31343B"/>
</svg>
